<svg xmlns="http://www.w3.org/2000/svg" width="1100" height="600" viewBox="0 0 1100 600" role="img" aria-labelledby="title desc">
  <title id="title">Open source work tracker</title>
  <desc id="desc">Tracker-style snapshot with five active review items and five recently merged workstreams.</desc>
  <defs>
    <linearGradient id="panel" x1="0" x2="1" y1="0" y2="1">
      <stop offset="0%" stop-color="#020617"/>
      <stop offset="100%" stop-color="#111827"/>
    </linearGradient>
    <linearGradient id="accent" x1="0" x2="1" y1="0" y2="0">
      <stop offset="0%" stop-color="#2563eb"/>
      <stop offset="45%" stop-color="#0f766e"/>
      <stop offset="100%" stop-color="#38bdf8"/>
    </linearGradient>
    <filter id="shadow" x="-20%" y="-20%" width="140%" height="140%">
      <feDropShadow dx="0" dy="10" stdDeviation="14" flood-color="#000000" flood-opacity="0.30"/>
    </filter>
  </defs>

  <rect width="1100" height="600" rx="28" fill="url(#panel)"/>
  <circle cx="964" cy="92" r="170" fill="#2563eb" opacity="0.16"/>
  <circle cx="130" cy="432" r="190" fill="#0f766e" opacity="0.14"/>
  <rect x="58" y="54" width="984" height="6" rx="3" fill="url(#accent)"/>

  <g font-family="Inter, Segoe UI, Arial, sans-serif">
    <text x="58" y="104" font-size="30" font-weight="850" fill="#f8fafc">Open source tracker</text>
    <text x="58" y="132" font-size="15" fill="#cbd5e1">Review queue and merged patches across developer tools, AI infrastructure, Rust, and Python.</text>

    <g transform="translate(58 168)" filter="url(#shadow)">
      <rect width="484" height="390" rx="22" fill="#0f172a" stroke="#334155"/>
      <text x="26" y="42" font-size="18" font-weight="850" fill="#f8fafc">Active review queue</text>
      <rect x="330" y="24" width="126" height="28" rx="14" fill="#1e3a8a"/>
      <text x="393" y="43" text-anchor="middle" font-size="12" font-weight="850" fill="#bfdbfe">5 open PRs</text>

      <g transform="translate(26 70)">
        <rect width="432" height="50" rx="14" fill="#111827" stroke="#334155"/>
        <text x="16" y="20" font-size="14" font-weight="850" fill="#f8fafc">CrewAI #6094</text>
        <text x="16" y="38" font-size="11" fill="#cbd5e1">Human feedback final answer visibility</text>
        <rect x="316" y="14" width="94" height="22" rx="11" fill="#065f46"/>
        <text x="363" y="29" text-anchor="middle" font-size="10" font-weight="850" fill="#a7f3d0">approved</text>
      </g>

      <g transform="translate(26 132)">
        <rect width="432" height="50" rx="14" fill="#111827" stroke="#334155"/>
        <text x="16" y="20" font-size="14" font-weight="850" fill="#f8fafc">LiveKit Agents #6001</text>
        <text x="16" y="38" font-size="11" fill="#cbd5e1">STT error tolerance in AgentSession</text>
        <rect x="316" y="14" width="94" height="22" rx="11" fill="#4c1d95"/>
        <text x="363" y="29" text-anchor="middle" font-size="10" font-weight="850" fill="#c4b5fd">in review</text>
      </g>

      <g transform="translate(26 194)">
        <rect width="432" height="50" rx="14" fill="#111827" stroke="#334155"/>
        <text x="16" y="20" font-size="14" font-weight="850" fill="#f8fafc">Puppeteer #15075</text>
        <text x="16" y="38" font-size="11" fill="#cbd5e1">Locale emulation across CDP and BiDi</text>
        <rect x="316" y="14" width="94" height="22" rx="11" fill="#065f46"/>
        <text x="363" y="29" text-anchor="middle" font-size="10" font-weight="850" fill="#a7f3d0">approved</text>
      </g>

      <g transform="translate(26 256)">
        <rect width="432" height="50" rx="14" fill="#111827" stroke="#334155"/>
        <text x="16" y="20" font-size="14" font-weight="850" fill="#f8fafc">AWS IAM #227</text>
        <text x="16" y="38" font-size="11" fill="#cbd5e1">Read-only MCP guardrail for mutation</text>
        <rect x="316" y="14" width="94" height="22" rx="11" fill="#075985"/>
        <text x="363" y="29" text-anchor="middle" font-size="10" font-weight="850" fill="#bfdbfe">approval wait</text>
      </g>

      <g transform="translate(26 318)">
        <rect width="432" height="50" rx="14" fill="#111827" stroke="#334155"/>
        <text x="16" y="20" font-size="14" font-weight="850" fill="#f8fafc">dprint TS #800</text>
        <text x="16" y="38" font-size="11" fill="#cbd5e1">JSDoc Markdown hard-break preservation</text>
        <rect x="316" y="14" width="94" height="22" rx="11" fill="#4c1d95"/>
        <text x="363" y="29" text-anchor="middle" font-size="10" font-weight="850" fill="#c4b5fd">in review</text>
      </g>
    </g>

    <g transform="translate(570 168)" filter="url(#shadow)">
      <rect width="472" height="390" rx="22" fill="#0f172a" stroke="#334155"/>
      <text x="26" y="42" font-size="18" font-weight="850" fill="#f8fafc">Merged patch train</text>
      <rect x="328" y="24" width="118" height="28" rx="14" fill="#064e3b"/>
      <text x="387" y="43" text-anchor="middle" font-size="12" font-weight="850" fill="#a7f3d0">8 merged PRs</text>

      <g transform="translate(26 68)">
        <rect width="420" height="50" rx="14" fill="#111827" stroke="#334155"/>
        <text x="18" y="22" font-size="15" font-weight="850" fill="#f8fafc">TrustGraph #977</text>
        <text x="18" y="40" font-size="12" fill="#cbd5e1">Invalid PDF decoder input validation</text>
      </g>

      <g transform="translate(26 130)">
        <rect width="420" height="50" rx="14" fill="#111827" stroke="#334155"/>
        <text x="18" y="22" font-size="15" font-weight="850" fill="#f8fafc">TrustGraph #948 #952 #954 #955</text>
        <text x="18" y="40" font-size="12" fill="#cbd5e1">Safer exceptions, parsing, and WebSocket behavior</text>
      </g>

      <g transform="translate(26 192)">
        <rect width="420" height="50" rx="14" fill="#111827" stroke="#334155"/>
        <text x="18" y="22" font-size="15" font-weight="850" fill="#f8fafc">AWS IAM Autopilot #217</text>
        <text x="18" y="40" font-size="12" fill="#cbd5e1">Resource cutoff configuration</text>
      </g>

      <g transform="translate(26 254)">
        <rect width="420" height="50" rx="14" fill="#111827" stroke="#334155"/>
        <text x="18" y="22" font-size="15" font-weight="850" fill="#f8fafc">AWS IAM Autopilot #214</text>
        <text x="18" y="40" font-size="12" fill="#cbd5e1">Pre-commit hooks and validation docs</text>
      </g>

      <g transform="translate(26 316)">
        <rect width="420" height="50" rx="14" fill="#111827" stroke="#334155"/>
        <text x="18" y="22" font-size="15" font-weight="850" fill="#f8fafc">Harper #3460</text>
        <text x="18" y="40" font-size="12" fill="#cbd5e1">Rust grammar false-positive fix</text>
      </g>
    </g>
  </g>
</svg>
